<svg width="726" height="66" viewBox="0 0 726 66" fill="none" xmlns="http://www.w3.org/2000/svg">
<rect x="183.5" y="0.5" width="372" height="65" rx="7.5" stroke="#F37021"/>
<rect x="183.5" y="0.5" width="372" height="65" rx="7.5" stroke="black" stroke-opacity="0.2"/>
<path d="M268.244 28.724C269.182 28.724 270.018 28.922 270.752 29.318C271.485 29.6993 272.064 30.2787 272.49 31.056C272.915 31.8333 273.128 32.7793 273.128 33.894V41H271.148V34.18C271.148 32.9773 270.847 32.0607 270.246 31.43C269.659 30.7847 268.86 30.462 267.848 30.462C266.806 30.462 265.978 30.7993 265.362 31.474C264.746 32.134 264.438 33.0947 264.438 34.356V41H262.458V34.18C262.458 32.9773 262.157 32.0607 261.556 31.43C260.969 30.7847 260.17 30.462 259.158 30.462C258.116 30.462 257.288 30.7993 256.672 31.474C256.056 32.134 255.748 33.0947 255.748 34.356V41H253.746V28.944H255.748V30.682C256.144 30.0513 256.672 29.5673 257.332 29.23C258.006 28.8927 258.747 28.724 259.554 28.724C260.566 28.724 261.46 28.9513 262.238 29.406C263.015 29.8607 263.594 30.528 263.976 31.408C264.313 30.5573 264.87 29.8973 265.648 29.428C266.425 28.9587 267.29 28.724 268.244 28.724ZM286.796 28.944L279.536 46.676H277.468L279.844 40.868L274.982 28.944H277.204L280.988 38.712L284.728 28.944H286.796ZM297.872 37.59H291.184L289.952 41H287.84L293.384 25.754H295.694L301.216 41H299.104L297.872 37.59ZM297.3 35.962L294.528 28.218L291.756 35.962H297.3ZM307.9 41.198C306.976 41.198 306.148 41.044 305.414 40.736C304.681 40.4133 304.102 39.9733 303.676 39.416C303.251 38.844 303.016 38.1913 302.972 37.458H305.04C305.099 38.0593 305.378 38.5507 305.876 38.932C306.39 39.3133 307.057 39.504 307.878 39.504C308.641 39.504 309.242 39.3353 309.682 38.998C310.122 38.6607 310.342 38.2353 310.342 37.722C310.342 37.194 310.108 36.8053 309.638 36.556C309.169 36.292 308.443 36.0353 307.46 35.786C306.566 35.5513 305.832 35.3167 305.26 35.082C304.703 34.8327 304.219 34.4733 303.808 34.004C303.412 33.52 303.214 32.8893 303.214 32.112C303.214 31.496 303.398 30.9313 303.764 30.418C304.131 29.9047 304.652 29.5013 305.326 29.208C306.001 28.9 306.771 28.746 307.636 28.746C308.971 28.746 310.049 29.0833 310.87 29.758C311.692 30.4327 312.132 31.3567 312.19 32.53H310.188C310.144 31.8993 309.888 31.3933 309.418 31.012C308.964 30.6307 308.348 30.44 307.57 30.44C306.852 30.44 306.28 30.594 305.854 30.902C305.429 31.21 305.216 31.6133 305.216 32.112C305.216 32.508 305.341 32.838 305.59 33.102C305.854 33.3513 306.177 33.5567 306.558 33.718C306.954 33.8647 307.497 34.0333 308.186 34.224C309.052 34.4587 309.756 34.6933 310.298 34.928C310.841 35.148 311.303 35.4853 311.684 35.94C312.08 36.3947 312.286 36.9887 312.3 37.722C312.3 38.382 312.117 38.976 311.75 39.504C311.384 40.032 310.863 40.45 310.188 40.758C309.528 41.0513 308.766 41.198 307.9 41.198ZM319.394 41.198C318.47 41.198 317.642 41.044 316.908 40.736C316.175 40.4133 315.596 39.9733 315.17 39.416C314.745 38.844 314.51 38.1913 314.466 37.458H316.534C316.593 38.0593 316.872 38.5507 317.37 38.932C317.884 39.3133 318.551 39.504 319.372 39.504C320.135 39.504 320.736 39.3353 321.176 38.998C321.616 38.6607 321.836 38.2353 321.836 37.722C321.836 37.194 321.602 36.8053 321.132 36.556C320.663 36.292 319.937 36.0353 318.954 35.786C318.06 35.5513 317.326 35.3167 316.754 35.082C316.197 34.8327 315.713 34.4733 315.302 34.004C314.906 33.52 314.708 32.8893 314.708 32.112C314.708 31.496 314.892 30.9313 315.258 30.418C315.625 29.9047 316.146 29.5013 316.82 29.208C317.495 28.9 318.265 28.746 319.13 28.746C320.465 28.746 321.543 29.0833 322.364 29.758C323.186 30.4327 323.626 31.3567 323.684 32.53H321.682C321.638 31.8993 321.382 31.3933 320.912 31.012C320.458 30.6307 319.842 30.44 319.064 30.44C318.346 30.44 317.774 30.594 317.348 30.902C316.923 31.21 316.71 31.6133 316.71 32.112C316.71 32.508 316.835 32.838 317.084 33.102C317.348 33.3513 317.671 33.5567 318.052 33.718C318.448 33.8647 318.991 34.0333 319.68 34.224C320.546 34.4587 321.25 34.6933 321.792 34.928C322.335 35.148 322.797 35.4853 323.178 35.94C323.574 36.3947 323.78 36.9887 323.794 37.722C323.794 38.382 323.611 38.976 323.244 39.504C322.878 40.032 322.357 40.45 321.682 40.758C321.022 41.0513 320.26 41.198 319.394 41.198ZM327.655 26.986C327.273 26.986 326.951 26.854 326.687 26.59C326.423 26.326 326.291 26.0033 326.291 25.622C326.291 25.2407 326.423 24.918 326.687 24.654C326.951 24.39 327.273 24.258 327.655 24.258C328.021 24.258 328.329 24.39 328.579 24.654C328.843 24.918 328.975 25.2407 328.975 25.622C328.975 26.0033 328.843 26.326 328.579 26.59C328.329 26.854 328.021 26.986 327.655 26.986ZM328.623 28.944V41H326.621V28.944H328.623ZM337.007 28.746C338.048 28.746 338.957 28.9733 339.735 29.428C340.527 29.8827 341.113 30.4547 341.495 31.144V28.944H343.519V41.264C343.519 42.364 343.284 43.3393 342.815 44.19C342.345 45.0553 341.671 45.73 340.791 46.214C339.925 46.698 338.913 46.94 337.755 46.94C336.171 46.94 334.851 46.566 333.795 45.818C332.739 45.07 332.115 44.0507 331.925 42.76H333.905C334.125 43.4933 334.579 44.08 335.269 44.52C335.958 44.9747 336.787 45.202 337.755 45.202C338.855 45.202 339.749 44.8573 340.439 44.168C341.143 43.4787 341.495 42.5107 341.495 41.264V38.734C341.099 39.438 340.512 40.0247 339.735 40.494C338.957 40.9633 338.048 41.198 337.007 41.198C335.936 41.198 334.961 40.934 334.081 40.406C333.215 39.878 332.533 39.1373 332.035 38.184C331.536 37.2307 331.287 36.1453 331.287 34.928C331.287 33.696 331.536 32.618 332.035 31.694C332.533 30.7553 333.215 30.0293 334.081 29.516C334.961 29.0027 335.936 28.746 337.007 28.746ZM341.495 34.95C341.495 34.0407 341.311 33.2487 340.945 32.574C340.578 31.8993 340.079 31.386 339.449 31.034C338.833 30.6673 338.151 30.484 337.403 30.484C336.655 30.484 335.973 30.66 335.357 31.012C334.741 31.364 334.249 31.8773 333.883 32.552C333.516 33.2267 333.333 34.0187 333.333 34.928C333.333 35.852 333.516 36.6587 333.883 37.348C334.249 38.0227 334.741 38.5433 335.357 38.91C335.973 39.262 336.655 39.438 337.403 39.438C338.151 39.438 338.833 39.262 339.449 38.91C340.079 38.5433 340.578 38.0227 340.945 37.348C341.311 36.6587 341.495 35.8593 341.495 34.95ZM361.4 28.724C362.339 28.724 363.175 28.922 363.908 29.318C364.641 29.6993 365.221 30.2787 365.646 31.056C366.071 31.8333 366.284 32.7793 366.284 33.894V41H364.304V34.18C364.304 32.9773 364.003 32.0607 363.402 31.43C362.815 30.7847 362.016 30.462 361.004 30.462C359.963 30.462 359.134 30.7993 358.518 31.474C357.902 32.134 357.594 33.0947 357.594 34.356V41H355.614V34.18C355.614 32.9773 355.313 32.0607 354.712 31.43C354.125 30.7847 353.326 30.462 352.314 30.462C351.273 30.462 350.444 30.7993 349.828 31.474C349.212 32.134 348.904 33.0947 348.904 34.356V41H346.902V28.944H348.904V30.682C349.3 30.0513 349.828 29.5673 350.488 29.23C351.163 28.8927 351.903 28.724 352.71 28.724C353.722 28.724 354.617 28.9513 355.394 29.406C356.171 29.8607 356.751 30.528 357.132 31.408C357.469 30.5573 358.027 29.8973 358.804 29.428C359.581 28.9587 360.447 28.724 361.4 28.724ZM380.568 34.51C380.568 34.8913 380.546 35.2947 380.502 35.72H370.866C370.939 36.908 371.343 37.8393 372.076 38.514C372.824 39.174 373.726 39.504 374.782 39.504C375.647 39.504 376.366 39.306 376.938 38.91C377.525 38.4993 377.935 37.9567 378.17 37.282H380.326C380.003 38.4407 379.358 39.3867 378.39 40.12C377.422 40.8387 376.219 41.198 374.782 41.198C373.638 41.198 372.611 40.9413 371.702 40.428C370.807 39.9147 370.103 39.1887 369.59 38.25C369.077 37.2967 368.82 36.1967 368.82 34.95C368.82 33.7033 369.069 32.6107 369.568 31.672C370.067 30.7333 370.763 30.0147 371.658 29.516C372.567 29.0027 373.609 28.746 374.782 28.746C375.926 28.746 376.938 28.9953 377.818 29.494C378.698 29.9927 379.373 30.682 379.842 31.562C380.326 32.4273 380.568 33.41 380.568 34.51ZM378.5 34.092C378.5 33.3293 378.331 32.6767 377.994 32.134C377.657 31.5767 377.195 31.1587 376.608 30.88C376.036 30.5867 375.398 30.44 374.694 30.44C373.682 30.44 372.817 30.7627 372.098 31.408C371.394 32.0533 370.991 32.948 370.888 34.092H378.5ZM389.084 28.724C390.551 28.724 391.739 29.1713 392.648 30.066C393.558 30.946 394.012 32.222 394.012 33.894V41H392.032V34.18C392.032 32.9773 391.732 32.0607 391.13 31.43C390.529 30.7847 389.708 30.462 388.666 30.462C387.61 30.462 386.767 30.792 386.136 31.452C385.52 32.112 385.212 33.0727 385.212 34.334V41H383.21V28.944H385.212V30.66C385.608 30.044 386.144 29.5673 386.818 29.23C387.508 28.8927 388.263 28.724 389.084 28.724ZM399.725 30.594V37.7C399.725 38.2867 399.849 38.7047 400.099 38.954C400.348 39.1887 400.781 39.306 401.397 39.306H402.871V41H401.067C399.952 41 399.116 40.7433 398.559 40.23C398.001 39.7167 397.723 38.8733 397.723 37.7V30.594H396.161V28.944H397.723V25.908H399.725V28.944H402.871V30.594H399.725ZM416.296 26.898C417.924 26.898 419.34 27.206 420.542 27.822C421.745 28.438 422.669 29.3033 423.314 30.418C423.96 31.518 424.282 32.794 424.282 34.246C424.282 35.4047 424.092 36.5193 423.71 37.59C423.329 38.646 422.772 39.504 422.038 40.164C421.32 40.824 420.476 41.154 419.508 41.154C418.775 41.154 418.21 40.9707 417.814 40.604C417.418 40.2373 417.191 39.7387 417.132 39.108C416.678 39.7387 416.098 40.2373 415.394 40.604C414.705 40.9707 413.972 41.154 413.194 41.154C412.08 41.154 411.2 40.8167 410.554 40.142C409.924 39.4527 409.608 38.5287 409.608 37.37C409.608 36.27 409.836 35.2433 410.29 34.29C410.76 33.3367 411.405 32.574 412.226 32.002C413.048 31.4153 413.979 31.122 415.02 31.122C416.414 31.122 417.352 31.65 417.836 32.706L418.078 31.342H419.816L418.716 37.7C418.672 37.9787 418.65 38.2353 418.65 38.47C418.65 39.35 419.039 39.79 419.816 39.79C420.403 39.79 420.909 39.5113 421.334 38.954C421.774 38.3967 422.104 37.7 422.324 36.864C422.544 36.0133 422.654 35.1773 422.654 34.356C422.654 32.4347 422.075 30.946 420.916 29.89C419.772 28.834 418.152 28.306 416.054 28.306C414.309 28.306 412.732 28.7313 411.324 29.582C409.931 30.418 408.838 31.5693 408.046 33.036C407.254 34.5027 406.858 36.1233 406.858 37.898C406.844 39.834 407.423 41.3227 408.596 42.364C409.77 43.42 411.398 43.948 413.48 43.948C414.859 43.948 416.076 43.6987 417.132 43.2L417.396 44.564C416.091 45.1067 414.654 45.378 413.084 45.378C411.515 45.378 410.129 45.0773 408.926 44.476C407.738 43.8893 406.814 43.0387 406.154 41.924C405.509 40.824 405.186 39.5407 405.186 38.074C405.186 36.006 405.663 34.1213 406.616 32.42C407.57 30.704 408.89 29.3547 410.576 28.372C412.278 27.3893 414.184 26.898 416.296 26.898ZM413.788 39.592C414.448 39.592 415.057 39.4013 415.614 39.02C416.172 38.624 416.612 38.096 416.934 37.436C417.257 36.7613 417.418 36.028 417.418 35.236C417.418 34.4733 417.206 33.8573 416.78 33.388C416.37 32.904 415.783 32.662 415.02 32.662C414.316 32.662 413.693 32.8747 413.15 33.3C412.622 33.7107 412.212 34.2607 411.918 34.95C411.625 35.6247 411.478 36.3287 411.478 37.062C411.478 37.8393 411.676 38.4553 412.072 38.91C412.468 39.3647 413.04 39.592 413.788 39.592ZM438.576 34.51C438.576 34.8913 438.554 35.2947 438.51 35.72H428.874C428.947 36.908 429.35 37.8393 430.084 38.514C430.832 39.174 431.734 39.504 432.79 39.504C433.655 39.504 434.374 39.306 434.946 38.91C435.532 38.4993 435.943 37.9567 436.178 37.282H438.334C438.011 38.4407 437.366 39.3867 436.398 40.12C435.43 40.8387 434.227 41.198 432.79 41.198C431.646 41.198 430.619 40.9413 429.71 40.428C428.815 39.9147 428.111 39.1887 427.598 38.25C427.084 37.2967 426.828 36.1967 426.828 34.95C426.828 33.7033 427.077 32.6107 427.576 31.672C428.074 30.7333 428.771 30.0147 429.666 29.516C430.575 29.0027 431.616 28.746 432.79 28.746C433.934 28.746 434.946 28.9953 435.826 29.494C436.706 29.9927 437.38 30.682 437.85 31.562C438.334 32.4273 438.576 33.41 438.576 34.51ZM436.508 34.092C436.508 33.3293 436.339 32.6767 436.002 32.134C435.664 31.5767 435.202 31.1587 434.616 30.88C434.044 30.5867 433.406 30.44 432.702 30.44C431.69 30.44 430.824 30.7627 430.106 31.408C429.402 32.0533 428.998 32.948 428.896 34.092H436.508ZM447.51 41L444.65 36.512L441.9 41H439.81L443.704 35.016L439.81 28.944H442.076L444.936 33.41L447.664 28.944H449.754L445.882 34.906L449.776 41H447.51ZM453.748 31.166C454.144 30.4767 454.73 29.9047 455.508 29.45C456.3 28.9807 457.216 28.746 458.258 28.746C459.328 28.746 460.296 29.0027 461.162 29.516C462.042 30.0293 462.731 30.7553 463.23 31.694C463.728 32.618 463.978 33.696 463.978 34.928C463.978 36.1453 463.728 37.2307 463.23 38.184C462.731 39.1373 462.042 39.878 461.162 40.406C460.296 40.934 459.328 41.198 458.258 41.198C457.231 41.198 456.322 40.9707 455.53 40.516C454.752 40.0467 454.158 39.4673 453.748 38.778V46.72H451.746V28.944H453.748V31.166ZM461.932 34.928C461.932 34.0187 461.748 33.2267 461.382 32.552C461.015 31.8773 460.516 31.364 459.886 31.012C459.27 30.66 458.588 30.484 457.84 30.484C457.106 30.484 456.424 30.6673 455.794 31.034C455.178 31.386 454.679 31.9067 454.298 32.596C453.931 33.2707 453.748 34.0553 453.748 34.95C453.748 35.8593 453.931 36.6587 454.298 37.348C454.679 38.0227 455.178 38.5433 455.794 38.91C456.424 39.262 457.106 39.438 457.84 39.438C458.588 39.438 459.27 39.262 459.886 38.91C460.516 38.5433 461.015 38.0227 461.382 37.348C461.748 36.6587 461.932 35.852 461.932 34.928ZM468.615 24.72V41H466.613V24.72H468.615ZM477.285 41.198C476.156 41.198 475.129 40.9413 474.205 40.428C473.296 39.9147 472.577 39.1887 472.049 38.25C471.536 37.2967 471.279 36.1967 471.279 34.95C471.279 33.718 471.543 32.6327 472.071 31.694C472.614 30.7407 473.347 30.0147 474.271 29.516C475.195 29.0027 476.229 28.746 477.373 28.746C478.517 28.746 479.551 29.0027 480.475 29.516C481.399 30.0147 482.125 30.7333 482.653 31.672C483.196 32.6107 483.467 33.7033 483.467 34.95C483.467 36.1967 483.188 37.2967 482.631 38.25C482.088 39.1887 481.348 39.9147 480.409 40.428C479.47 40.9413 478.429 41.198 477.285 41.198ZM477.285 39.438C478.004 39.438 478.678 39.2693 479.309 38.932C479.94 38.5947 480.446 38.0887 480.827 37.414C481.223 36.7393 481.421 35.918 481.421 34.95C481.421 33.982 481.23 33.1607 480.849 32.486C480.468 31.8113 479.969 31.3127 479.353 30.99C478.737 30.6527 478.07 30.484 477.351 30.484C476.618 30.484 475.943 30.6527 475.327 30.99C474.726 31.3127 474.242 31.8113 473.875 32.486C473.508 33.1607 473.325 33.982 473.325 34.95C473.325 35.9327 473.501 36.7613 473.853 37.436C474.22 38.1107 474.704 38.6167 475.305 38.954C475.906 39.2767 476.566 39.438 477.285 39.438ZM488.101 30.902C488.453 30.2127 488.952 29.6773 489.597 29.296C490.257 28.9147 491.056 28.724 491.995 28.724V30.792H491.467C489.223 30.792 488.101 32.0093 488.101 34.444V41H486.099V28.944H488.101V30.902ZM495.34 26.986C494.959 26.986 494.636 26.854 494.372 26.59C494.108 26.326 493.976 26.0033 493.976 25.622C493.976 25.2407 494.108 24.918 494.372 24.654C494.636 24.39 494.959 24.258 495.34 24.258C495.707 24.258 496.015 24.39 496.264 24.654C496.528 24.918 496.66 25.2407 496.66 25.622C496.66 26.0033 496.528 26.326 496.264 26.59C496.015 26.854 495.707 26.986 495.34 26.986ZM496.308 28.944V41H494.306V28.944H496.308ZM505.594 28.724C507.061 28.724 508.249 29.1713 509.158 30.066C510.068 30.946 510.522 32.222 510.522 33.894V41H508.542V34.18C508.542 32.9773 508.242 32.0607 507.64 31.43C507.039 30.7847 506.218 30.462 505.176 30.462C504.12 30.462 503.277 30.792 502.646 31.452C502.03 32.112 501.722 33.0727 501.722 34.334V41H499.72V28.944H501.722V30.66C502.118 30.044 502.654 29.5673 503.328 29.23C504.018 28.8927 504.773 28.724 505.594 28.724ZM514.43 41.132C514.049 41.132 513.726 41 513.462 40.736C513.198 40.472 513.066 40.1493 513.066 39.768C513.066 39.3867 513.198 39.064 513.462 38.8C513.726 38.536 514.049 38.404 514.43 38.404C514.797 38.404 515.105 38.536 515.354 38.8C515.618 39.064 515.75 39.3867 515.75 39.768C515.75 40.1493 515.618 40.472 515.354 40.736C515.105 41 514.797 41.132 514.43 41.132ZM519.446 26.986C519.064 26.986 518.742 26.854 518.478 26.59C518.214 26.326 518.082 26.0033 518.082 25.622C518.082 25.2407 518.214 24.918 518.478 24.654C518.742 24.39 519.064 24.258 519.446 24.258C519.812 24.258 520.12 24.39 520.37 24.654C520.634 24.918 520.766 25.2407 520.766 25.622C520.766 26.0033 520.634 26.326 520.37 26.59C520.12 26.854 519.812 26.986 519.446 26.986ZM520.414 28.944V41H518.412V28.944H520.414ZM529.084 41.198C527.954 41.198 526.928 40.9413 526.004 40.428C525.094 39.9147 524.376 39.1887 523.848 38.25C523.334 37.2967 523.078 36.1967 523.078 34.95C523.078 33.718 523.342 32.6327 523.87 31.694C524.412 30.7407 525.146 30.0147 526.07 29.516C526.994 29.0027 528.028 28.746 529.172 28.746C530.316 28.746 531.35 29.0027 532.274 29.516C533.198 30.0147 533.924 30.7333 534.452 31.672C534.994 32.6107 535.266 33.7033 535.266 34.95C535.266 36.1967 534.987 37.2967 534.43 38.25C533.887 39.1887 533.146 39.9147 532.208 40.428C531.269 40.9413 530.228 41.198 529.084 41.198ZM529.084 39.438C529.802 39.438 530.477 39.2693 531.108 38.932C531.738 38.5947 532.244 38.0887 532.626 37.414C533.022 36.7393 533.22 35.918 533.22 34.95C533.22 33.982 533.029 33.1607 532.648 32.486C532.266 31.8113 531.768 31.3127 531.152 30.99C530.536 30.6527 529.868 30.484 529.15 30.484C528.416 30.484 527.742 30.6527 527.126 30.99C526.524 31.3127 526.04 31.8113 525.674 32.486C525.307 33.1607 525.124 33.982 525.124 34.95C525.124 35.9327 525.3 36.7613 525.652 37.436C526.018 38.1107 526.502 38.6167 527.104 38.954C527.705 39.2767 528.365 39.438 529.084 39.438Z" fill="white"/>
<path d="M233.6 44.375H230.2V28.5156L220 35.3125L209.8 28.5156V44.375H206.4V22.625H208.44L220 30.3281L231.56 22.625H233.6M233.6 19H206.4C204.513 19 203 20.6131 203 22.625V44.375C203 45.3364 203.358 46.2584 203.996 46.9383C204.633 47.6181 205.498 48 206.4 48H233.6C234.502 48 235.367 47.6181 236.004 46.9383C236.642 46.2584 237 45.3364 237 44.375V22.625C237 21.6636 236.642 20.7416 236.004 20.0617C235.367 19.3819 234.502 19 233.6 19Z" fill="#F37021"/>
<rect x="0.5" y="0.5" width="167" height="65" rx="7.5" stroke="#F37021"/>
<rect x="0.5" y="0.5" width="167" height="65" rx="7.5" stroke="black" stroke-opacity="0.2"/>
<path d="M63.0456 39.372H68.4136V41H61.0436V25.666H63.0456V39.372ZM71.5737 26.986C71.1924 26.986 70.8697 26.854 70.6057 26.59C70.3417 26.326 70.2097 26.0033 70.2097 25.622C70.2097 25.2407 70.3417 24.918 70.6057 24.654C70.8697 24.39 71.1924 24.258 71.5737 24.258C71.9404 24.258 72.2484 24.39 72.4977 24.654C72.7617 24.918 72.8937 25.2407 72.8937 25.622C72.8937 26.0033 72.7617 26.326 72.4977 26.59C72.2484 26.854 71.9404 26.986 71.5737 26.986ZM72.5417 28.944V41H70.5397V28.944H72.5417ZM81.8278 28.724C83.2944 28.724 84.4824 29.1713 85.3918 30.066C86.3011 30.946 86.7558 32.222 86.7558 33.894V41H84.7758V34.18C84.7758 32.9773 84.4751 32.0607 83.8738 31.43C83.2724 30.7847 82.4511 30.462 81.4098 30.462C80.3538 30.462 79.5104 30.792 78.8798 31.452C78.2638 32.112 77.9558 33.0727 77.9558 34.334V41H75.9538V28.944H77.9558V30.66C78.3518 30.044 78.8871 29.5673 79.5618 29.23C80.2511 28.8927 81.0064 28.724 81.8278 28.724ZM96.758 41L92.028 35.676V41H90.026V24.72H92.028V34.29L96.67 28.944H99.464L93.788 34.95L99.486 41H96.758ZM112.348 34.51C112.348 34.8913 112.326 35.2947 112.282 35.72H102.646C102.72 36.908 103.123 37.8393 103.856 38.514C104.604 39.174 105.506 39.504 106.562 39.504C107.428 39.504 108.146 39.306 108.718 38.91C109.305 38.4993 109.716 37.9567 109.95 37.282H112.106C111.784 38.4407 111.138 39.3867 110.17 40.12C109.202 40.8387 108 41.198 106.562 41.198C105.418 41.198 104.392 40.9413 103.482 40.428C102.588 39.9147 101.884 39.1887 101.37 38.25C100.857 37.2967 100.6 36.1967 100.6 34.95C100.6 33.7033 100.85 32.6107 101.348 31.672C101.847 30.7333 102.544 30.0147 103.438 29.516C104.348 29.0027 105.389 28.746 106.562 28.746C107.706 28.746 108.718 28.9953 109.598 29.494C110.478 29.9927 111.153 30.682 111.622 31.562C112.106 32.4273 112.348 33.41 112.348 34.51ZM110.28 34.092C110.28 33.3293 110.112 32.6767 109.774 32.134C109.437 31.5767 108.975 31.1587 108.388 30.88C107.816 30.5867 107.178 30.44 106.474 30.44C105.462 30.44 104.597 30.7627 103.878 31.408C103.174 32.0533 102.771 32.948 102.668 34.092H110.28ZM114.243 34.928C114.243 33.696 114.492 32.618 114.991 31.694C115.49 30.7553 116.172 30.0293 117.037 29.516C117.917 29.0027 118.9 28.746 119.985 28.746C120.924 28.746 121.796 28.966 122.603 29.406C123.41 29.8313 124.026 30.396 124.451 31.1V24.72H126.475V41H124.451V38.734C124.055 39.4527 123.468 40.0467 122.691 40.516C121.914 40.9707 121.004 41.198 119.963 41.198C118.892 41.198 117.917 40.934 117.037 40.406C116.172 39.878 115.49 39.1373 114.991 38.184C114.492 37.2307 114.243 36.1453 114.243 34.928ZM124.451 34.95C124.451 34.0407 124.268 33.2487 123.901 32.574C123.534 31.8993 123.036 31.386 122.405 31.034C121.789 30.6673 121.107 30.484 120.359 30.484C119.611 30.484 118.929 30.66 118.313 31.012C117.697 31.364 117.206 31.8773 116.839 32.552C116.472 33.2267 116.289 34.0187 116.289 34.928C116.289 35.852 116.472 36.6587 116.839 37.348C117.206 38.0227 117.697 38.5433 118.313 38.91C118.929 39.262 119.611 39.438 120.359 39.438C121.107 39.438 121.789 39.262 122.405 38.91C123.036 38.5433 123.534 38.0227 123.901 37.348C124.268 36.6587 124.451 35.8593 124.451 34.95ZM131.86 25.666V41H129.858V25.666H131.86ZM141.146 28.724C142.613 28.724 143.801 29.1713 144.71 30.066C145.619 30.946 146.074 32.222 146.074 33.894V41H144.094V34.18C144.094 32.9773 143.793 32.0607 143.192 31.43C142.591 30.7847 141.769 30.462 140.728 30.462C139.672 30.462 138.829 30.792 138.198 31.452C137.582 32.112 137.274 33.0727 137.274 34.334V41H135.272V28.944H137.274V30.66C137.67 30.044 138.205 29.5673 138.88 29.23C139.569 28.8927 140.325 28.724 141.146 28.724Z" fill="white"/>
<path d="M45.4444 19C46.3874 19 47.2918 19.3395 47.9586 19.9438C48.6254 20.5481 49 21.3676 49 22.2222V44.7778C49 45.6324 48.6254 46.4519 47.9586 47.0562C47.2918 47.6605 46.3874 48 45.4444 48H20.5556C19.6126 48 18.7082 47.6605 18.0414 47.0562C17.3746 46.4519 17 45.6324 17 44.7778V22.2222C17 21.3676 17.3746 20.5481 18.0414 19.9438C18.7082 19.3395 19.6126 19 20.5556 19H45.4444ZM44.5556 43.9722V35.4333C44.5556 34.0404 43.945 32.7044 42.8581 31.7195C41.7712 30.7345 40.2971 30.1811 38.76 30.1811C37.2489 30.1811 35.4889 31.0189 34.6356 32.2756V30.4872H29.6756V43.9722H34.6356V36.0294C34.6356 34.7889 35.7378 33.7739 37.1067 33.7739C37.7668 33.7739 38.3998 34.0115 38.8666 34.4345C39.3333 34.8575 39.5956 35.4312 39.5956 36.0294V43.9722H44.5556ZM23.8978 27.9578C24.6899 27.9578 25.4496 27.6726 26.0097 27.165C26.5698 26.6574 26.8844 25.969 26.8844 25.2511C26.8844 23.7528 25.5511 22.5283 23.8978 22.5283C23.1009 22.5283 22.3368 22.8152 21.7733 23.3258C21.2099 23.8364 20.8933 24.529 20.8933 25.2511C20.8933 26.7494 22.2444 27.9578 23.8978 27.9578ZM26.3689 43.9722V30.4872H21.4444V43.9722H26.3689Z" fill="#F37021"/>
<rect x="571.5" y="0.5" width="154" height="65" rx="7.5" stroke="#F37021"/>
<rect x="571.5" y="0.5" width="154" height="65" rx="7.5" stroke="black" stroke-opacity="0.2"/>
<path d="M646.748 30.11C646.322 29.2153 645.706 28.526 644.9 28.042C644.093 27.5433 643.154 27.294 642.084 27.294C641.013 27.294 640.045 27.5433 639.18 28.042C638.329 28.526 637.654 29.23 637.156 30.154C636.672 31.0633 636.43 32.1193 636.43 33.322C636.43 34.5247 636.672 35.5807 637.156 36.49C637.654 37.3993 638.329 38.1033 639.18 38.602C640.045 39.086 641.013 39.328 642.084 39.328C643.58 39.328 644.812 38.8807 645.78 37.986C646.748 37.0913 647.312 35.8813 647.474 34.356H641.358V32.728H649.608V34.268C649.49 35.5293 649.094 36.688 648.42 37.744C647.745 38.7853 646.858 39.614 645.758 40.23C644.658 40.8313 643.433 41.132 642.084 41.132C640.661 41.132 639.363 40.802 638.19 40.142C637.016 39.4673 636.085 38.536 635.396 37.348C634.721 36.16 634.384 34.818 634.384 33.322C634.384 31.826 634.721 30.484 635.396 29.296C636.085 28.0933 637.016 27.162 638.19 26.502C639.363 25.8273 640.661 25.49 642.084 25.49C643.712 25.49 645.149 25.8933 646.396 26.7C647.657 27.5067 648.574 28.6433 649.146 30.11H646.748ZM653.289 26.986C652.907 26.986 652.585 26.854 652.321 26.59C652.057 26.326 651.925 26.0033 651.925 25.622C651.925 25.2407 652.057 24.918 652.321 24.654C652.585 24.39 652.907 24.258 653.289 24.258C653.655 24.258 653.963 24.39 654.213 24.654C654.477 24.918 654.609 25.2407 654.609 25.622C654.609 26.0033 654.477 26.326 654.213 26.59C653.963 26.854 653.655 26.986 653.289 26.986ZM654.257 28.944V41H652.255V28.944H654.257ZM660.111 30.594V37.7C660.111 38.2867 660.235 38.7047 660.485 38.954C660.734 39.1887 661.167 39.306 661.783 39.306H663.257V41H661.453C660.338 41 659.502 40.7433 658.945 40.23C658.387 39.7167 658.109 38.8733 658.109 37.7V30.594H656.547V28.944H658.109V25.908H660.111V28.944H663.257V30.594H660.111ZM671.666 28.724C672.576 28.724 673.397 28.922 674.13 29.318C674.864 29.6993 675.436 30.2787 675.846 31.056C676.272 31.8333 676.484 32.7793 676.484 33.894V41H674.504V34.18C674.504 32.9773 674.204 32.0607 673.602 31.43C673.001 30.7847 672.18 30.462 671.138 30.462C670.082 30.462 669.239 30.792 668.608 31.452C667.992 32.112 667.684 33.0727 667.684 34.334V41H665.682V24.72H667.684V30.66C668.08 30.044 668.623 29.5673 669.312 29.23C670.016 28.8927 670.801 28.724 671.666 28.724ZM690.447 28.944V41H688.445V39.218C688.063 39.834 687.528 40.318 686.839 40.67C686.164 41.0073 685.416 41.176 684.595 41.176C683.656 41.176 682.813 40.9853 682.065 40.604C681.317 40.208 680.723 39.6213 680.283 38.844C679.857 38.0667 679.645 37.1207 679.645 36.006V28.944H681.625V35.742C681.625 36.93 681.925 37.8467 682.527 38.492C683.128 39.1227 683.949 39.438 684.991 39.438C686.061 39.438 686.905 39.108 687.521 38.448C688.137 37.788 688.445 36.8273 688.445 35.566V28.944H690.447ZM695.829 31.188C696.239 30.4693 696.841 29.8827 697.633 29.428C698.425 28.9733 699.327 28.746 700.339 28.746C701.424 28.746 702.399 29.0027 703.265 29.516C704.13 30.0293 704.812 30.7553 705.311 31.694C705.809 32.618 706.059 33.696 706.059 34.928C706.059 36.1453 705.809 37.2307 705.311 38.184C704.812 39.1373 704.123 39.878 703.243 40.406C702.377 40.934 701.409 41.198 700.339 41.198C699.297 41.198 698.381 40.9707 697.589 40.516C696.811 40.0613 696.225 39.482 695.829 38.778V41H693.827V24.72H695.829V31.188ZM704.013 34.928C704.013 34.0187 703.829 33.2267 703.463 32.552C703.096 31.8773 702.597 31.364 701.967 31.012C701.351 30.66 700.669 30.484 699.921 30.484C699.187 30.484 698.505 30.6673 697.875 31.034C697.259 31.386 696.76 31.9067 696.379 32.596C696.012 33.2707 695.829 34.0553 695.829 34.95C695.829 35.8593 696.012 36.6587 696.379 37.348C696.76 38.0227 697.259 38.5433 697.875 38.91C698.505 39.262 699.187 39.438 699.921 39.438C700.669 39.438 701.351 39.262 701.967 38.91C702.597 38.5433 703.096 38.0227 703.463 37.348C703.829 36.6587 704.013 35.852 704.013 34.928Z" fill="white"/>
<path d="M606.5 16C604.333 16 602.188 16.4374 600.186 17.2872C598.184 18.137 596.365 19.3825 594.833 20.9527C591.738 24.1239 590 28.4249 590 32.9096C590 40.3837 594.736 46.7248 601.286 48.9738C602.111 49.1091 602.375 48.5849 602.375 48.1283V45.2706C597.805 46.2852 596.831 43.0047 596.831 43.0047C596.072 41.0432 595 40.519 595 40.519C593.498 39.4706 595.115 39.5044 595.115 39.5044C596.765 39.6228 597.639 41.2461 597.639 41.2461C599.075 43.8164 601.5 43.0554 602.441 42.6496C602.589 41.5505 603.018 40.8064 603.48 40.3837C599.817 39.961 595.973 38.5067 595.973 32.0642C595.973 30.1872 596.6 28.6822 597.673 27.4816C597.508 27.0589 596.93 25.3003 597.838 23.0175C597.838 23.0175 599.224 22.5609 602.375 24.7423C603.679 24.3703 605.098 24.1843 606.5 24.1843C607.903 24.1843 609.322 24.3703 610.625 24.7423C613.777 22.5609 615.163 23.0175 615.163 23.0175C616.07 25.3003 615.493 27.0589 615.327 27.4816C616.4 28.6822 617.027 30.1872 617.027 32.0642C617.027 38.5236 613.166 39.9441 609.486 40.3668C610.08 40.891 610.625 41.9225 610.625 43.4951V48.1283C610.625 48.5849 610.889 49.126 611.73 48.9738C618.281 46.7079 623 40.3837 623 32.9096C623 30.689 622.573 28.4902 621.744 26.4386C620.915 24.387 619.699 22.5229 618.167 20.9527C616.635 19.3825 614.816 18.137 612.814 17.2872C610.812 16.4374 608.667 16 606.5 16Z" fill="#F37021"/>
</svg>
